<?xml version="1.0" encoding="UTF-8"?>
<svg id="Layer_2" data-name="Layer 2" xmlns="http://www.w3.org/2000/svg" viewBox="0 0 142.74 85.89">
  <defs>
    <style>
      .cls-1 {
        fill: #272525;
        stroke: #272525;
        stroke-miterlimit: 10;
        stroke-width: 7px;
      }
    </style>
  </defs>
  <g id="Layer_1-2" data-name="Layer 1">
    <path class="cls-1" d="m22.11,46.14c-2.48.53-4.34,2.73-4.34,5.37,0,1.21.4,2.37,1.12,3.32l-2.29,13.57c-.1.58.06,1.17.44,1.62.38.45.94.71,1.53.71h9.38c.58,0,1.13-.25,1.51-.69.38-.44.55-1.01.47-1.59l-1.95-14.15c.5-.84.77-1.81.77-2.8,0-1.98-1.06-3.71-2.64-4.68v-7.34l12.36,5.36v30.69c0,3.78,3.08,6.86,6.86,6.86h56.4c3.78,0,6.86-3.08,6.86-6.86v-32.56l29.44-12.77c.76-.33,1.24-1.09,1.2-1.92-.03-.83-.57-1.54-1.35-1.81L70.92,3.61c-.44-.15-.92-.14-1.35.02C46.64,12.31,8.98,26.15,5.48,26.36c-.94,0-1.75.67-1.94,1.59-.19.93.29,1.87,1.16,2.24l17.41,7.55v8.39Zm-1.18,20.59l2.06-12.21c.12-.7-.14-1.41-.69-1.87-.34-.29-.54-.7-.54-1.14,0-.82.67-1.49,1.49-1.49s1.49.67,1.49,1.49c0,.46-.2.78-.37.98-.38.44-.55,1.01-.47,1.59l1.75,12.66h-4.72Zm83.66,8.81c0,1.58-1.28,2.86-2.86,2.86h-56.4c-1.58,0-2.86-1.28-2.86-2.86v-28.95l28.1,12.19c.25.11.52.16.8.16s.54-.05.8-.16l32.43-14.07v30.83ZM11.57,28.82c14.48-4.52,49.24-17.6,58.73-21.19l61.39,20.96-60.33,26.17-39.84-17.29,33.64-4.44c1.47.9,3.66,1.46,6.2,1.46,4.64,0,8.14-1.85,8.14-4.29s-3.5-4.29-8.14-4.29c-4,0-7.15,1.38-7.94,3.32l-39.03,5.15-12.83-5.56Zm53.66,1.38c0-.94,2.39-2.29,6.14-2.29s6.14,1.36,6.14,2.29-2.39,2.29-6.14,2.29-6.14-1.36-6.14-2.29Z"/>
  </g>
</svg>