<?xml version="1.0" encoding="UTF-8"?>
<svg xmlns="http://www.w3.org/2000/svg" xmlns:xlink="http://www.w3.org/1999/xlink" viewBox="0 0 88.45 88.46">
  <defs>
    <style>
      .cls-1 {
        fill: #fff;
      }

      .cls-2 {
        fill: #f3c144;
      }

      .cls-3 {
        isolation: isolate;
      }

      .cls-4 {
        fill: #005b83;
      }

      .cls-5 {
        fill: #00cfdd;
      }

      .cls-6 {
        fill: url(#linear-gradient);
        mix-blend-mode: multiply;
        opacity: .4;
      }
    </style>
    <linearGradient id="linear-gradient" x1="25.14" y1="28.79" x2="73.56" y2="71.48" gradientUnits="userSpaceOnUse">
      <stop offset="0" stop-color="#676767"/>
      <stop offset=".96" stop-color="#fff"/>
    </linearGradient>
  </defs>
  <g class="cls-3">
    <g id="Layer_2" data-name="Layer 2">
      <g id="icons">
        <g>
          <path class="cls-4" d="m88.45,44.23c0,1.98-.14,3.92-.38,5.83-.08.63-.18,1.26-.29,1.89-3.23,18.39-17.84,32.87-36.31,35.92-2.36.39-4.78.59-7.25.59-.19,0-.38,0-.57-.01C19.49,88.15,0,68.47,0,44.23S19.8,0,44.22,0s44.23,19.81,44.23,44.23Z"/>
          <g>
            <path class="cls-6" d="m59.23,23.8s0-.02-.02-.03c-.57-.88-1.22-1.69-1.93-2.43-.24-.25-.48-.49-.73-.72-3.01-2.77-6.94-4.34-11.1-4.34-1.93,0-3.83.35-5.61,1.02-1.07.4-2.1.92-3.07,1.56-1.17.76-2.21,1.66-3.1,2.65-.89.99-1.64,2.08-2.25,3.24,0,0,0,0,0,0-.3.58-.56,1.17-.79,1.78-.13.31-.23.62-.32.93-.1.31-.18.63-.26.94-.09.32-.16.64-.21.96-.66,3.67-.08,7.59,1.88,11.06,0,0-.02-.02-.04-.03,0,0,0,0,0-.01-.29-.23-1.57-1.21-1.74-1.34h0c-.29-.3-.75-.3-1.04-.01l-.85.84s-1.96-2-1.96-2h0c0-.21-.08-.38-.22-.52-.03-.04-.06-.07-.1-.09-.12-.08-.26-.13-.41-.13h-2.63c-.15,0-.29.05-.41.13-.04.02-.07.05-.11.09-.13.14-.21.31-.21.51v1.86c-.13.04-.26.08-.39.12-.26.09-.51.2-.75.31-.12.06-.24.13-.36.19l-1.31-1.31c-.28-.29-.75-.29-1.03,0l-1.86,1.86c-.07.07-.12.15-.16.23-.11.26-.06.59.16.8l1.31,1.31c-.26.47-.47.97-.62,1.5h-1.85c-.41,0-.73.33-.73.73v2.63c0,.4.32.73.73.73h1.5c-.09,0,.8,1.25.95,1.47.01,0,.01.02.02.03l-1.31,1.31c-.07.07-.12.15-.16.23-.11.26-.06.58.16.8l1.86,1.86s.03.02.04.04c.94.94,19.51,19.52,33.3,33.3,18.47-3.05,33.08-17.53,36.31-35.92-13.25-13.13-27.87-27.44-28.55-28.15Z"/>
            <g>
              <g>
                <path class="cls-1" d="m55.74,32.24h-2.43c-.2-.69-.47-1.35-.81-1.97l1.72-1.71c.37-.38.37-.99,0-1.37l-2.44-2.44c-.38-.37-.99-.37-1.36,0l-1.72,1.72c-.62-.34-1.28-.61-1.97-.81v-2.43c0-.54-.43-.97-.97-.97h-3.45c-.53,0-.96.43-.96.97v2.43c-.69.2-1.35.47-1.97.81l-1.72-1.72c-.33-.32-.83-.36-1.2-.12h0c-.05.04-.1.08-.15.12l-2.44,2.44c-.38.38-.38.99,0,1.37l.33.33,1.39,1.39c-.34.61-.61,1.27-.81,1.96h-2.44c-.53,0-.96.44-.96.97v3.45c0,.53.43.96.96.96h2.44c.2.69.47,1.35.81,1.97l-1.72,1.72c-.38.38-.38.99,0,1.36l2.44,2.44c.38.38.98.38,1.36,0l1.72-1.71c.62.34,1.28.61,1.97.81v2.43c0,.53.43.96.96.96h3.45c.54,0,.97-.43.97-.96v-2.43c.69-.2,1.35-.47,1.97-.81l.8.79.92.92c.14.15.32.23.51.26.3.06.62-.03.85-.26l1.16-1.16,1.28-1.28c.36-.36.37-.94.03-1.32,0,0-.02-.03-.03-.04l-1.72-1.72c.34-.62.61-1.28.81-1.97h2.43c.54,0,.97-.43.97-.96v-3.45c0-.53-.43-.97-.97-.97Zm-11.7,8.5c-3.21,0-5.81-2.6-5.81-5.81s2.6-5.81,5.81-5.81,5.81,2.61,5.81,5.81-2.61,5.81-5.81,5.81Z"/>
                <path class="cls-1" d="m45.05,55.19l-1.22-.5c.04-.38.04-.77,0-1.16l1.22-.51c.26-.11.39-.42.28-.68l-.73-1.73c-.11-.26-.41-.39-.68-.28l-1.22.51c-.24-.3-.52-.58-.82-.81l.5-1.22c.05-.12.05-.24.02-.35-.05-.15-.15-.27-.3-.33l-1.74-.71c-.23-.1-.5-.01-.62.19-.03.03-.05.06-.06.09l-.5,1.22c-.38-.04-.76-.04-1.15,0l-.51-1.22c-.11-.26-.42-.39-.69-.28l-1.73.73c-.26.11-.39.42-.27.68l.51,1.22c-.31.24-.58.52-.82.82l-1.22-.5c-.27-.11-.57.02-.68.29l-.65,1.59c.03-.22-.03-.45-.2-.63l-1.3-1.3c.26-.47.46-.98.61-1.5h1.85c.41,0,.74-.33.74-.73v-2.63c0-.4-.33-.73-.74-.73h-1.85c-.15-.53-.36-1.03-.62-1.5l1.31-1.31c.29-.29.29-.75,0-1.04l-1.84-1.84h0c-.29-.3-.75-.3-1.04-.01l-.85.84-.46.46c-.47-.26-.97-.46-1.5-.61v-1.86c0-.2-.08-.37-.22-.51-.02-.03-.06-.07-.1-.09-.12-.08-.26-.13-.41-.13h-2.63c-.15,0-.29.05-.41.13-.04.02-.07.05-.11.09-.13.14-.21.31-.21.51v1.86c-.13.04-.26.08-.39.12-.25.09-.51.19-.75.31-.12.05-.24.11-.36.18l-1.31-1.3c-.28-.29-.75-.29-1.03,0l-1.86,1.85h0c-.07.08-.12.16-.16.24-.1.27-.05.58.16.8l1.31,1.31c-.26.47-.47.97-.62,1.5h-1.85c-.41,0-.73.33-.73.73v2.63c0,.4.32.73.73.73h1.85c.15.51.35,1.01.6,1.47.01,0,.01.02.02.03l-1.31,1.3h0c-.07.08-.12.16-.16.24-.1.27-.05.58.16.8l1.86,1.86s.03.02.04.04c.28.24.72.23.99-.04l1.31-1.31c.47.26.98.47,1.5.62v1.85c0,.41.33.73.73.73h2.63c.4,0,.73-.32.73-.73v-1.85c.53-.15,1.03-.36,1.5-.62l1.31,1.31c.29.28.75.28,1.04,0l1.85-1.86c.06-.05.09-.12.12-.18-.05.24.07.49.31.59l1.22.5c-.04.38-.04.77,0,1.15l-1.21.52c-.27.11-.39.41-.28.68l.72,1.73c.11.26.42.39.69.28l1.21-.51c.25.3.52.57.82.81l-.5,1.22c-.11.27.02.57.29.68l1.73.71c.27.11.57-.02.69-.28l.49-1.23c.38.04.77.04,1.16,0l.51,1.21c.11.27.42.4.68.29l1.73-.73c.27-.11.39-.42.28-.68l-.51-1.22c.3-.25.58-.52.81-.82l1.22.5c.27.11.58-.02.69-.29l.7-1.73c.11-.27,0-.57-.28-.68Zm-21.03-3.99c-2.44,0-4.42-1.98-4.42-4.42s1.98-4.42,4.42-4.42,4.42,1.99,4.42,4.42-1.99,4.42-4.42,4.42Zm15.82,5.84c-1.61.67-3.46-.09-4.13-1.69-.67-1.6.09-3.45,1.69-4.12,1.6-.67,3.45.08,4.12,1.68.68,1.61-.08,3.46-1.68,4.13Z"/>
              </g>
              <g>
                <path class="cls-2" d="m69.35,60.79c.71,1.08.4,2.53-.68,3.24l-3.34,2.18c-1.08.71-2.53.4-3.23-.68l-11.35-17.36c-.7-1.08-.4-2.53.68-3.24l3.34-2.18c1.08-.7,2.53-.4,3.23.68l11.35,17.36Z"/>
                <path class="cls-5" d="m59.23,23.8s0-.02-.02-.03c-.57-.88-1.22-1.69-1.93-2.43-.23-.25-.48-.49-.73-.72-3.01-2.77-6.94-4.35-11.1-4.35-1.93,0-3.83.35-5.61,1.03-1.07.4-2.1.92-3.07,1.56-1.17.76-2.21,1.66-3.1,2.65-.89.99-1.65,2.08-2.25,3.24,0,0,0,0,0,0-.3.58-.57,1.17-.79,1.78-.13.31-.23.62-.32.93-.1.31-.18.63-.26.94-.09.32-.16.64-.21.96-.67,3.65-.11,7.56,1.83,11.02,0,.01,0,.01,0,.01.18.33.38.66.59.98,1.86,2.84,4.47,4.98,7.47,6.23.86.36,1.75.65,2.66.85,1.17.27,2.39.41,3.62.41,1.62,0,3.21-.24,4.73-.72,1.39-.43,2.72-1.06,3.96-1.86,1.26-.82,2.36-1.79,3.3-2.88,4.61-5.31,5.31-13.34,1.23-19.61Zm-12.5,20.9c-.24.02-.48.03-.72.03-4.14,0-7.98-2.1-10.28-5.62-1.39-2.13-2.04-4.52-2.03-6.87,0-1.14.17-2.27.49-3.35.45-1.55,1.21-3,2.26-4.26h0c.71-.87,1.58-1.66,2.58-2.31,1.91-1.25,4.13-1.91,6.41-1.91,4.15,0,7.99,2.1,10.29,5.62,3.24,4.97,2.49,11.39-1.49,15.32-.54.54-1.15,1.03-1.82,1.47-.91.6-1.9,1.06-2.93,1.37-.89.29-1.82.46-2.77.51Z"/>
              </g>
            </g>
          </g>
        </g>
      </g>
    </g>
  </g>
</svg>