<?xml version="1.0" encoding="UTF-8"?>
<svg id="Layer_2" data-name="Layer 2" xmlns="http://www.w3.org/2000/svg" viewBox="0 0 44.36 41.64">
  <defs>
    <style>
      .cls-1 {
        fill: #595959;
        fill-rule: evenodd;
      }
    </style>
  </defs>
  <g id="_10" data-name="10">
    <path class="cls-1" d="m43.66,26.23l-1.63-.81c0-.34,0-.5-.17-.84l1.48-1.15c.33-.5.5-.97.16-1.62l-.82-1.33c-.33-.47-.98-.65-1.46-.47l-1.65.65c-.33-.18-.5-.34-.65-.5v-1.8c0-.65-.33-1.15-.82-1.31l-1.63-.34c-.33-.16-.65,0-.82.16-.33,0-.5.34-.5.5l-.81,1.65c-.34,0-.5,0-.82.16l-1.32-1.46c-.33-.34-.98-.5-1.48-.18l-1.31.84c-.5.31-.65.81-.5,1.46l.67,1.65c-.17.34-.34.5-.67.65h-1.8c-.16,0-.48,0-.65.16-.17.18-.48.34-.48.65l-.34,1.65c-.16.5,0,1.15.5,1.31l1.8.81c0,.34,0,.5.16.84l-1.46,1.15c-.5.5-.5,1.12-.17,1.62l.82,1.33c.33.47.81.63,1.31.47l1.8-.65c.17.18.5.34.65.5v1.8c-.16.65.34,1.15.82,1.31l1.65.34c.33.16.48,0,.82-.18.16,0,.31-.16.48-.47l.82-1.65c.33,0,.5,0,.82-.16l1.15,1.46c.48.34.98.5,1.63.16l1.31-.81c.5-.31.67-.81.5-1.31l-.65-1.8c.16-.34.33-.5.48-.65h1.8c.34,0,.5,0,.67-.18.33-.16.5-.31.65-.63l.33-1.65c.17-.5-.16-.99-.65-1.31h0ZM13.13,10.49c-1.31,0-2.46,1.15-2.46,2.62,0,.5.17.99.5,1.49,0,.16.16.16.16.31.5.5,1.15.81,1.8.81,1.15,0,2.14-.81,2.47-1.62.16-.34.16-.65.16-.99,0-.65-.16-1.31-.65-1.8-.5-.47-1.15-.81-1.97-.81h0Zm13.3,3.77v-2.3c0-.81-.65-1.46-1.31-1.62l-2.63-.5c0-.34-.17-.65-.5-.97l1.48-2.14c.5-.65.5-1.65-.16-2.14l-1.65-1.62c-.16-.34-.65-.34-1.15-.34-.33,0-.65,0-.82.16l-2.13,1.49c-.33-.16-.65-.34-1.15-.5l-.48-2.46c-.17-.81-.82-1.31-1.65-1.31h-2.13c-.82,0-1.48.5-1.63,1.31l-.5,2.46c-.5.16-.82.34-1.15.5l-2.13-1.49c-.33-.16-.67-.16-.98-.16s-.82,0-1.15.34l-1.48,1.62c-.67.5-.67,1.49-.17,2.14l1.31,2.14c-.16.31-.31.63-.48.97l-2.46.5c-.82.16-1.32.81-1.32,1.62v2.3c0,.65.5,1.46,1.32,1.65l2.46.5c.17.31.33.65.48.97l-1.31,2.14c-.5.65-.5,1.46.17,2.12l1.48,1.65c.33.16.82.34,1.15.34s.65,0,.98-.18l2.13-1.46c.33.16.65.31,1.15.5l.5,2.46c.16.81.81,1.31,1.63,1.31h2.13c.82,0,1.48-.5,1.65-1.31l.48-2.46c.5-.18.82-.34,1.15-.5l2.13,1.46c.17.18.5.18.82.18.5,0,.99-.18,1.15-.34l1.65-1.65c.65-.65.65-1.46.16-2.12l-1.48-2.14c.33-.31.5-.65.5-.97l2.63-.5c.65-.18,1.31-.99,1.31-1.65h0Zm-7.39-.81h0c-.16,2.96-2.79,5.41-5.91,5.41-1.8,0-3.44-.84-4.59-2.3,0-.16-.17-.31-.33-.31-.5-.99-.82-1.99-.82-3.14,0-3.27,2.63-5.73,5.74-5.73,1.8,0,3.45.81,4.43,1.96.82,1.15,1.48,2.3,1.48,3.77v.34h0Zm-.81,20.48c-.17-.31-.5-.47-.82-.47-.33-.18-.67-.18-.99,0-.65.47-.98,1.31-.48,1.96.16.16.33.47.48.47.17,0,.17.18.33.18.34,0,.67,0,.99-.18.5-.31.65-.81.65-1.46,0-.16-.16-.34-.16-.5h0Zm5.24.84l-1.15-.5c0-.34-.16-.5-.16-.65l.98-.99c.33-.16.33-.65.17-.97l-.67-1.15c-.16-.34-.65-.5-.98-.34l-1.32.5c-.16-.16-.31-.34-.48-.34l.17-1.46c0-.34-.34-.65-.67-.81l-1.14-.34c-.34,0-.5,0-.67.16-.16,0-.33.18-.33.34l-.65,1.31h-.65l-.82-.99c-.33-.31-.82-.31-1.15-.16l-.98.65c-.5.18-.5.65-.5.99l.5,1.31c0,.16-.17.34-.33.5h-1.8c-.17.16-.33.31-.5.65l-.17,1.15c-.16.31,0,.81.34.97l1.31.5c0,.34,0,.5.16.65l-1.14.99c-.33.16-.33.65-.17.97l.65,1.15c.17.34.65.5.99.34l1.31-.5c.17.16.33.16.5.34v1.46c0,.31.33.65.65.81l1.15.34c.16,0,.48,0,.65-.16.16,0,.33-.18.33-.34l.65-1.31h.5l.98.97c.33.34.65.34,1.15.18l.98-.65c.34-.16.5-.65.34-.99l-.5-1.31c.16-.16.33-.34.5-.5h1.31c.16.16.33,0,.5,0,.16-.16.33-.31.33-.65l.33-1.15c.17-.31-.17-.81-.5-.97h0Zm-4.93,2.46h0c-.81.65-1.8.65-2.62.31q-.17-.16-.33-.16c-.5-.16-.82-.65-1.15-1.15-.82-1.46-.5-3.27.98-4.11.82-.47,1.8-.65,2.63-.31.65.16,1.15.65,1.63,1.31v.16c.82,1.31.34,3.11-1.15,3.95h0Zm17.9-12.13c-.17-.34-.5-.65-.99-.84-.48-.16-.98,0-1.48.18-.81.65-1.15,1.62-.65,2.62.17.34.5.5.82.65q.17.16.33.16c.5.18.98,0,1.48-.16.65-.5.98-1.15.82-1.96,0-.16-.17-.5-.33-.65h0Zm.65,4.58h0c-1.15.65-2.63.65-3.78.34,0-.18-.16-.18-.33-.34-.65-.31-1.15-.81-1.63-1.46-1.15-1.96-.5-4.42,1.46-5.73.99-.65,2.3-.65,3.45-.34.82.34,1.65.99,2.3,1.8v.16c.98,1.96.33,4.42-1.48,5.57h0Z"/>
  </g>
</svg>