<?xml version="1.0" encoding="UTF-8"?>
<svg id="Layer_2" data-name="Layer 2" xmlns="http://www.w3.org/2000/svg" viewBox="0 0 639.95 606.34">
  <g id="_Ñëîé_1" data-name="Ñëîé 1">
    <path d="m631.66,285.6l-103.53-102.36V50.45c0-6.71-5.44-12.15-12.15-12.15h-83.81c-6.71,0-12.15,5.44-12.15,12.15v25.89l-61.12-60.43c-21.46-21.22-56.38-21.22-77.84,0L8.3,285.6c-10.98,10.85-11.08,28.55-.22,39.53l.4.4c10.85,10.98,28.55,11.08,39.53.22L308.21,68.47c6.52-6.45,17.02-6.45,23.54,0l260.21,257.28c10.98,10.85,28.67,10.75,39.53-.22l.4-.4c10.85-10.98,10.75-28.67-.22-39.53Z"/>
    <path d="m552.88,594.48v-257.57c0-7.42-2.95-14.53-8.2-19.77l-215.29-214.83c-5.2-5.19-13.62-5.19-18.82,0l-215.29,214.83c-5.25,5.24-8.2,12.35-8.2,19.77v257.57c0,6.55,5.31,11.86,11.86,11.86h131.65c6.61,0,11.96-5.36,11.96-11.96v-201.94c0-6.61,5.36-11.96,11.96-11.96h130.96c6.61,0,11.96,5.36,11.96,11.96v201.94c0,6.61,5.36,11.96,11.96,11.96h131.65c6.55,0,11.86-5.31,11.86-11.86Z"/>
  </g>
</svg>