<?xml version="1.0" encoding="UTF-8"?>
<svg id="Layer_2" data-name="Layer 2" xmlns="http://www.w3.org/2000/svg" viewBox="0 0 23.97 20.51">
  <defs>
    <style>
      .cls-1 {
        fill: #141613;
        fill-rule: evenodd;
      }
    </style>
  </defs>
  <g id="OBJECTS">
    <path class="cls-1" d="m22.76,14.54c-.6-.27-3.49-1.58-4.03-1.76-.54-.19-.94-.27-1.33.27-.39.54-1.53,1.76-1.87,2.11-.35.36-.69.41-1.28.14-.59-.27-2.49-.83-4.74-2.69-1.75-1.43-2.94-3.2-3.28-3.74-.34-.54-.03-.83.26-1.1.27-.25.59-.64.89-.95.08-.09.15-.18.21-.26.14-.2.24-.39.37-.65.2-.36.1-.68-.04-.95-.15-.27-1.33-2.94-1.83-4.02C5.61-.14,5.11.05,4.76.05s-.73-.05-1.13-.05-1.04.14-1.58.68C1.52,1.22,0,2.53,0,5.2c0,.63.12,1.25.3,1.84.6,1.91,1.88,3.48,2.11,3.75.29.35,4.08,6,10.07,8.18,6,2.16,6,1.44,7.08,1.34,1.08-.08,3.49-1.3,3.98-2.57.5-1.26.5-2.34.35-2.57-.15-.22-.54-.35-1.13-.63Z"/>
  </g>
</svg>