<?xml version="1.0" standalone="no"?>
<!DOCTYPE svg PUBLIC "-//W3C//DTD SVG 20010904//EN"
 "http://www.w3.org/TR/2001/REC-SVG-20010904/DTD/svg10.dtd">
<svg version="1.0" xmlns="http://www.w3.org/2000/svg"
 width="700.000000pt" height="700.000000pt" viewBox="0 0 700.000000 700.000000"
 preserveAspectRatio="xMidYMid meet">
<metadata>
Created by potrace 1.14, written by Peter Selinger 2001-2017
</metadata>
<g transform="translate(0.000000,700.000000) scale(0.100000,-0.100000)"
fill="#000000" stroke="none">
<path d="M3278 6995 c-1 -1 -42 -5 -89 -9 -47 -4 -95 -8 -105 -10 -10 -2 -41
-7 -69 -10 -50 -7 -138 -22 -185 -31 -14 -3 -47 -10 -75 -15 -81 -16 -263 -67
-370 -104 -577 -196 -1102 -546 -1499 -996 -98 -112 -117 -135 -188 -230 -225
-299 -398 -630 -518 -990 -43 -128 -90 -298 -103 -370 -8 -44 -27 -144 -31
-165 -4 -23 -19 -121 -22 -150 -26 -237 -26 -667 1 -826 2 -13 6 -46 9 -74 21
-184 108 -542 165 -680 5 -11 29 -74 55 -141 55 -142 169 -372 246 -497 30
-48 60 -95 65 -105 25 -43 135 -194 213 -291 262 -324 586 -603 959 -825 102
-60 351 -181 468 -226 61 -24 119 -47 130 -51 64 -28 292 -91 450 -125 124
-27 274 -49 420 -61 205 -18 667 -5 780 21 11 3 47 8 80 11 33 4 63 9 66 11 4
2 24 6 45 10 139 21 398 96 584 169 591 230 1093 600 1491 1101 62 77 164 221
194 272 6 9 23 37 39 62 131 202 290 555 365 809 59 200 105 419 126 606 4 33
9 71 11 85 9 47 11 525 4 605 -15 157 -21 210 -25 225 -2 8 -7 35 -10 60 -15
117 -78 375 -125 520 -206 624 -589 1192 -1075 1595 -33 28 -62 53 -65 56 -12
14 -202 151 -284 204 -405 263 -901 454 -1351 521 -27 4 -57 9 -65 10 -8 2
-42 6 -76 9 -33 4 -74 9 -90 11 -32 5 -540 14 -546 9z"/>
</g>
</svg>
